<svg xmlns="http://www.w3.org/2000/svg" viewBox="0 0 17.55 12.81"><defs><style>.cls-1{fill:#f3f3f3;}.cls-2,.cls-3{fill:#1e1a1a;isolation:isolate;}.cls-2{opacity:0.1;}.cls-3{opacity:0.08;}</style></defs><g id="Camada_2" data-name="Camada 2"><g id="objects"><path id="path2" class="cls-1" d="M16.45,12.81H1.17a1.09,1.09,0,0,1-1.1-1.08V1.16A1.1,1.1,0,0,1,1.17.06H16.45a1.1,1.1,0,0,1,1.1,1.1V11.71A1.1,1.1,0,0,1,16.45,12.81Z"/><path id="path4" class="cls-2" d="M2.08,12.54,8.62,7.76l0-.28L1.93,2.64v9.67Z"/><path id="path6" d="M1.17,12.81a1.08,1.08,0,0,1-1.1-1.08V1.14C.07.53.56.42,1.17.42s1.1.13,1.1.72V12.81Z"/><path id="path12" d="M16.45,12.8H15.36V1.11c0-.61.48-.68,1.09-.68s1.1.08,1.1.68V11.74A1.09,1.09,0,0,1,16.45,12.8Z"/><path id="path14" class="cls-3" d="M11.6,12.54,0,1.33l.61.25L8.69,7.4,17.38,1V11.48a1.09,1.09,0,0,1-1.1,1.08Z"/><path id="path16" d="M8.79,8l-8.25-6A1.12,1.12,0,0,1,.28.52,1.13,1.13,0,0,1,1.84.28l7,5.07,7-5.14a1.08,1.08,0,0,1,1.53.25A1.08,1.08,0,0,1,17.09,2Z"/></g></g></svg>