<svg xmlns="http://www.w3.org/2000/svg" viewBox="0 0 20.74 20.74"><defs><style>.cls-1{fill:#fff;}</style></defs><g id="Camada_2" data-name="Camada 2"><g id="objects"><path d="M10.37,20.74h0A10.37,10.37,0,0,1,0,10.37H0A10.37,10.37,0,0,1,10.37,0h0A10.37,10.37,0,0,1,20.74,10.37h0A10.37,10.37,0,0,1,10.37,20.74Z"/><rect class="cls-1" x="5.67" y="8.06" width="2.15" height="6.93"/><path class="cls-1" d="M6.73,7.15A1.28,1.28,0,1,0,5.46,5.87,1.27,1.27,0,0,0,6.73,7.15Z"/><path class="cls-1" d="M11.24,11.35c0-1,.45-1.55,1.31-1.55s1.17.55,1.17,1.55V15h2.14V10.6a2.42,2.42,0,0,0-2.53-2.75A2.42,2.42,0,0,0,11.24,9V8.06H9.19V15h2.05Z"/></g></g></svg>