<svg xmlns="http://www.w3.org/2000/svg" viewBox="0 0 14.33 13.25"><defs><style>.cls-1{fill:#fff;fill-rule:evenodd;}</style></defs><g id="Camada_2" data-name="Camada 2"><g id="objects"><path class="cls-1" d="M13.61,9.4c-.36-.17-2.09-1-2.41-1.14s-.56-.17-.8.18S9.49,9.58,9.29,9.81s-.41.26-.77.08A9.56,9.56,0,0,1,5.68,8.16a11,11,0,0,1-2-2.42c-.2-.35,0-.54.16-.72s.35-.41.53-.61l.13-.17a4,4,0,0,0,.22-.42.62.62,0,0,0,0-.61C4.65,3,3.94,1.31,3.64.61S3.06,0,2.85,0s-.44,0-.67,0a1.33,1.33,0,0,0-1,.44A3.93,3.93,0,0,0,0,3.36,4.34,4.34,0,0,0,.18,4.55,8.28,8.28,0,0,0,1.44,7c.18.23,2.44,3.88,6,5.28s3.59.93,4.24.87a3.49,3.49,0,0,0,2.37-1.66,2.84,2.84,0,0,0,.21-1.66C14.2,9.66,14,9.58,13.61,9.4Z"/></g></g></svg>